<?xml version="1.0" standalone="no"?>
<!DOCTYPE svg PUBLIC "-//W3C//DTD SVG 20010904//EN"
 "http://www.w3.org/TR/2001/REC-SVG-20010904/DTD/svg10.dtd">
<svg version="1.0" xmlns="http://www.w3.org/2000/svg"
 width="512.000000pt" height="512.000000pt" viewBox="0 0 512.000000 512.000000"
 preserveAspectRatio="xMidYMid meet">

<g transform="translate(0.000000,512.000000) scale(0.100000,-0.100000)"
fill="#FFFFFF" stroke="none">
<path d="M2388 5105 c-346 -58 -649 -297 -785 -618 -61 -144 -77 -231 -77
-407 0 -127 4 -171 22 -244 141 -563 707 -904 1264 -762 370 94 656 380 755
754 22 84 26 117 26 252 0 135 -4 168 -26 252 -47 178 -129 327 -252 457 -243
256 -586 373 -927 316z m302 -155 c286 -45 531 -227 656 -485 64 -132 86 -225
88 -370 0 -67 -5 -150 -13 -187 l-13 -68 -124 0 c-68 0 -124 2 -124 5 0 3 27
73 61 157 64 160 66 181 27 218 -20 18 -35 20 -155 20 l-133 0 0 86 c0 124
-20 153 -107 154 l-53 0 0 46 c0 72 -30 113 -83 114 -17 0 -38 -10 -52 -25
-21 -20 -25 -34 -25 -80 l0 -55 -80 0 -80 0 0 46 c0 72 -30 113 -83 114 -17 0
-38 -10 -52 -25 -21 -20 -25 -34 -25 -80 l0 -55 -55 0 c-46 0 -60 -4 -80 -25
-23 -22 -25 -32 -25 -120 l0 -95 -95 0 c-88 0 -98 -2 -120 -25 -25 -24 -25
-27 -25 -200 l0 -175 -104 0 -104 0 -14 53 c-8 33 -13 105 -12 197 1 127 4
156 28 235 128 425 545 692 976 625z m110 -670 l0 -40 -240 0 -240 0 0 40 0
40 240 0 240 0 0 -40z m259 -252 c-12 -29 -33 -83 -48 -120 l-26 -68 -452 0
-453 0 0 120 0 120 500 0 500 0 -21 -52z m255 -395 c-127 -220 -366 -382 -624
-423 -328 -51 -677 103 -863 382 -20 31 -40 64 -43 72 -6 15 68 16 776 16
l782 0 -28 -47z"/>
<path d="M4240 3434 c-121 -25 -244 -75 -316 -129 -17 -13 -50 -29 -75 -35
-100 -27 -169 -82 -217 -173 l-27 -52 -3 -391 c-3 -321 0 -403 12 -465 30
-144 125 -293 242 -377 l64 -47 0 -81 0 -82 -122 -4 c-105 -3 -130 -8 -173
-28 -63 -31 -124 -91 -155 -155 -24 -48 -25 -60 -28 -267 l-3 -218 25 -25 c30
-30 74 -33 107 -6 24 19 24 23 29 229 5 193 7 213 26 238 45 61 66 69 193 72
l118 4 22 -35 c48 -79 146 -120 281 -120 135 0 233 41 281 120 l22 35 118 -4
c127 -3 148 -11 193 -72 19 -25 21 -45 26 -238 5 -206 5 -210 29 -229 33 -27
77 -24 107 6 l26 26 -4 217 -3 217 -36 65 c-67 123 -161 170 -335 170 l-104 0
0 85 c0 77 2 85 23 96 81 42 207 190 243 286 l18 46 13 -39 c8 -21 17 -73 20
-114 5 -59 11 -79 29 -97 31 -31 78 -30 110 2 l25 25 -3 483 -4 482 -27 80
c-38 115 -91 199 -182 291 -133 134 -285 203 -465 209 -52 2 -106 1 -120 -1z
m186 -165 c95 -17 210 -78 282 -149 70 -70 104 -122 141 -219 23 -62 25 -80
29 -296 l4 -229 -70 66 c-82 77 -172 130 -280 166 -66 21 -103 26 -253 31
-174 6 -176 6 -213 35 -61 46 -66 69 -66 293 l0 198 53 31 c124 74 242 97 373
73z m-588 -352 c-3 -173 -3 -174 -31 -210 -15 -20 -33 -37 -38 -37 -7 0 -9 61
-7 173 3 173 3 174 31 210 15 20 33 37 38 37 7 0 9 -61 7 -173z m115 -361 c84
-62 109 -69 302 -77 193 -7 232 -15 335 -70 30 -17 73 -45 94 -63 l39 -34 -11
-67 c-34 -206 -199 -368 -405 -398 -240 -34 -470 121 -532 358 -9 36 -15 103
-15 171 l0 111 41 18 c22 10 57 31 77 47 20 15 38 28 40 28 2 0 18 -11 35 -24z
m287 -871 c41 0 94 3 118 8 l43 7 -3 -102 -3 -102 -33 -23 c-64 -42 -180 -42
-244 0 l-33 23 -3 102 -3 102 43 -7 c24 -5 77 -8 118 -8z"/>
<path d="M695 3344 c-88 -19 -213 -79 -287 -139 -150 -120 -248 -330 -248
-530 0 -57 3 -69 25 -90 13 -14 31 -25 40 -25 13 0 15 -22 15 -152 0 -179 15
-259 64 -361 47 -97 114 -179 192 -235 l64 -47 0 -81 0 -82 -122 -4 c-105 -3
-130 -8 -173 -28 -64 -31 -124 -91 -155 -155 -23 -48 -25 -61 -28 -267 l-4
-217 26 -26 c30 -30 74 -33 107 -6 24 19 24 23 29 229 5 193 7 213 26 238 45
61 66 69 193 72 l118 4 22 -35 c48 -79 146 -120 281 -120 135 0 233 41 281
120 l22 35 118 -4 c127 -3 148 -11 193 -72 19 -25 21 -45 26 -238 5 -206 5
-210 29 -229 33 -27 77 -24 107 6 l26 26 -4 217 c-3 206 -5 219 -28 267 -31
64 -91 124 -155 155 -43 20 -68 25 -172 28 l-123 4 0 84 c0 83 0 84 31 100 46
24 159 142 197 206 18 31 45 89 60 130 26 71 27 81 30 341 3 220 1 282 -13
350 -75 372 -437 609 -810 531z m264 -159 c63 -15 151 -57 200 -94 l25 -19
-59 -121 -58 -120 -123 -45 c-193 -72 -244 -81 -441 -81 -94 0 -174 3 -178 7
-4 4 0 39 9 79 64 282 345 460 625 394z m385 -378 l7 -29 -28 20 c-15 11 -38
23 -50 26 -28 9 -28 16 -1 69 l21 42 23 -50 c12 -27 25 -63 28 -78z m-93 -152
c20 -13 53 -44 73 -68 l36 -44 0 -139 c0 -214 -38 -321 -151 -429 -264 -252
-701 -125 -794 230 -10 39 -15 106 -15 197 l0 138 113 0 c179 0 285 22 542
114 110 40 136 40 196 1z m-371 -970 c41 0 94 3 118 8 l43 7 -3 -102 -3 -102
-33 -23 c-64 -42 -180 -42 -244 0 l-33 23 -3 102 -3 102 43 -7 c24 -5 77 -8
118 -8z"/>
<path d="M2354 2949 c-140 -23 -266 -91 -379 -204 -91 -91 -143 -174 -183
-290 l-27 -80 0 -370 c0 -395 1 -403 55 -547 46 -124 171 -278 288 -356 l52
-35 0 -93 0 -94 -108 0 c-178 0 -295 -44 -395 -149 -114 -119 -137 -201 -137
-479 0 -202 0 -203 25 -227 29 -30 74 -32 106 -6 24 19 24 23 29 243 5 217 6
224 32 274 40 76 70 107 140 144 60 33 68 34 191 38 l127 4 51 -47 c57 -54
112 -80 207 -100 180 -39 373 3 474 102 l46 45 129 -4 c123 -4 131 -5 191 -38
70 -37 100 -68 140 -144 26 -50 27 -57 32 -274 5 -220 5 -224 29 -243 32 -26
77 -24 106 6 25 24 25 25 25 218 0 107 -5 218 -10 248 -25 131 -124 266 -239
328 -85 45 -159 61 -283 61 l-108 0 0 94 0 93 55 36 c114 76 239 232 285 355
54 143 55 154 55 527 l0 350 -32 67 c-42 90 -100 150 -186 193 -38 19 -76 35
-83 35 -11 0 -14 28 -14 140 0 136 -1 142 -25 165 l-24 25 -293 -1 c-161 -1
-316 -5 -344 -10z m526 -284 c0 -131 1 -137 25 -160 15 -16 35 -25 56 -25 62
0 113 -23 164 -75 58 -57 75 -102 75 -194 l0 -61 -70 46 c-78 52 -72 52 -210
9 -47 -14 -114 -30 -150 -35 -146 -21 -357 -7 -545 37 -174 40 -158 41 -235
-11 l-70 -46 0 68 c0 261 157 481 395 555 75 24 82 24 333 26 l232 1 0 -135z
m-652 -624 c270 -57 542 -52 756 13 l48 15 84 -56 84 -56 0 -131 c0 -163 -17
-246 -72 -356 -105 -210 -332 -350 -568 -350 -236 0 -466 142 -569 350 -54
111 -71 194 -71 356 l0 131 83 56 c60 42 89 55 107 52 14 -2 67 -13 118 -24z
m332 -1074 c91 0 152 5 188 15 l52 15 0 -104 0 -103 -32 -20 c-54 -33 -108
-44 -208 -44 -100 0 -154 11 -207 44 l-33 20 0 103 0 104 53 -15 c35 -10 96
-15 187 -15z"/>
</g>
</svg>
