<?xml version="1.0" standalone="no"?>
<!DOCTYPE svg PUBLIC "-//W3C//DTD SVG 20010904//EN"
 "http://www.w3.org/TR/2001/REC-SVG-20010904/DTD/svg10.dtd">
<svg version="1.0" xmlns="http://www.w3.org/2000/svg"
 width="512.000000pt" height="512.000000pt" viewBox="0 0 512.000000 512.000000"
 preserveAspectRatio="xMidYMid meet">

<g transform="translate(0.000000,512.000000) scale(0.100000,-0.100000)"
fill="#FFFFFF" stroke="none">
<path d="M420 5104 c-119 -32 -217 -116 -274 -234 l-31 -65 0 -750 0 -750 31
-66 c50 -105 127 -179 234 -225 43 -18 92 -19 1420 -24 l1375 -5 3 -642 c1
-457 -1 -643 -9 -643 -6 0 -58 35 -115 79 -117 87 -268 171 -358 196 -137 40
-270 -20 -324 -144 -23 -54 -20 -148 6 -201 22 -45 177 -231 526 -634 100
-114 193 -227 209 -250 15 -22 46 -88 68 -146 70 -178 111 -246 211 -348 107
-110 243 -188 393 -228 107 -29 419 -26 530 4 99 27 229 89 309 146 70 50 178
160 225 228 48 72 108 203 133 293 22 78 22 96 26 668 3 661 5 647 -69 730
-58 67 -126 97 -215 97 -61 0 -81 -5 -130 -30 l-57 -31 -36 35 c-88 85 -221
105 -326 48 l-58 -31 -49 44 c-77 70 -166 90 -264 60 -27 -8 -50 -15 -51 -15
-2 0 -3 56 -3 125 0 120 -1 127 -25 150 -30 30 -64 32 -99 4 l-26 -20 0 -350
0 -350 25 -24 c29 -30 64 -32 96 -6 22 18 24 28 29 143 6 139 13 156 75 189
48 26 97 21 140 -13 43 -33 55 -76 55 -188 0 -94 2 -103 25 -125 31 -32 69
-32 100 0 23 22 25 32 25 107 0 91 16 132 65 164 37 24 109 23 143 -3 45 -32
62 -79 62 -166 0 -69 3 -81 25 -102 31 -32 69 -32 100 0 20 19 25 34 25 76 0
63 24 116 64 140 64 39 157 14 191 -51 14 -28 16 -94 12 -608 -3 -517 -5 -583
-21 -637 -78 -262 -260 -452 -518 -538 -91 -30 -98 -31 -278 -31 -177 0 -189
1 -265 27 -214 75 -360 224 -448 457 -62 165 -71 179 -328 475 -326 377 -472
551 -486 583 -28 66 26 142 100 142 65 0 238 -93 382 -205 103 -79 114 -85
173 -85 58 0 106 28 136 80 21 34 21 51 26 780 4 590 8 750 18 768 34 60 123
79 183 39 60 -40 69 -72 69 -245 0 -149 1 -154 25 -177 31 -32 69 -32 100 0
23 22 25 32 25 110 l0 85 453 0 c385 0 462 2 508 16 112 33 208 117 262 232
l32 67 0 750 0 750 -32 66 c-41 83 -96 145 -164 186 -109 65 -74 63 -1137 63
l-963 0 -24 -25 c-30 -29 -32 -64 -6 -96 l19 -24 984 -5 983 -5 54 -30 c56
-31 106 -88 128 -148 15 -42 18 -1404 3 -1459 -15 -53 -68 -118 -125 -153
l-48 -30 -469 -3 c-443 -2 -468 -2 -468 15 0 38 -49 120 -94 160 -79 69 -170
89 -272 58 -86 -25 -171 -117 -189 -202 l-7 -33 -1356 0 c-1292 0 -1359 1
-1397 19 -56 25 -101 66 -133 120 l-27 46 -3 705 c-2 492 0 717 8 745 17 62
70 126 131 160 l54 30 983 5 984 5 19 24 c26 32 24 67 -6 96 l-24 25 -968 -1
c-819 0 -976 -3 -1023 -15z"/>
<path d="M496 4428 c-14 -20 -16 -68 -16 -379 l0 -358 26 -20 c24 -19 40 -21
163 -21 151 0 196 9 256 50 41 28 86 98 99 154 l7 28 28 -43 c84 -132 254
-209 403 -181 126 23 241 107 289 211 13 28 26 50 29 50 3 0 15 -22 28 -49 65
-139 233 -232 392 -216 132 13 262 102 320 219 l30 60 0 -106 c0 -116 9 -149
47 -166 34 -16 47 -14 77 10 25 20 26 24 26 125 0 57 3 104 8 104 4 0 59 -53
122 -119 126 -132 153 -147 198 -114 19 14 28 31 30 57 3 36 -2 43 -142 184
l-145 147 144 146 c126 126 145 150 145 177 0 42 -31 72 -72 72 -28 0 -50 -17
-160 -127 l-128 -128 0 108 c0 123 -12 147 -73 147 -59 0 -71 -25 -77 -156
l-5 -115 -23 51 c-31 68 -114 150 -187 186 -55 27 -69 29 -170 29 -98 0 -116
-3 -167 -27 -74 -34 -149 -105 -185 -173 -15 -30 -30 -55 -33 -55 -3 0 -18 25
-33 55 -36 68 -111 139 -185 173 -51 24 -69 27 -167 27 -101 0 -115 -2 -170
-29 -126 -62 -214 -190 -223 -322 l-4 -71 -36 39 -35 39 16 35 c42 87 3 220
-81 279 -43 30 -45 30 -197 33 -150 3 -153 3 -169 -20z m294 -150 c21 -23 26
-68 10 -98 -13 -24 -62 -40 -121 -40 l-49 0 0 80 0 80 70 0 c58 0 72 -3 90
-22z m715 1 c91 -43 153 -153 142 -250 -19 -156 -170 -259 -318 -215 -181 53
-241 282 -108 415 72 72 192 93 284 50z m760 2 c90 -40 144 -126 145 -226 0
-228 -271 -338 -426 -173 -18 18 -39 48 -48 65 -58 115 -2 274 116 331 56 27
157 29 213 3z m-1418 -315 c22 -19 28 -32 28 -66 0 -35 -6 -47 -33 -71 -31
-27 -37 -29 -122 -29 l-90 0 0 95 0 95 94 0 c86 0 98 -2 123 -24z"/>
<path d="M3190 4430 c-19 -19 -20 -33 -20 -375 l0 -356 25 -24 c13 -14 36 -25
50 -25 14 0 37 11 50 25 l25 24 0 349 c0 338 -1 350 -21 376 -26 33 -79 36
-109 6z"/>
<path d="M3460 4428 c-19 -21 -20 -33 -20 -375 l0 -354 25 -24 c29 -30 64 -32
96 -6 24 19 24 23 29 236 l5 217 139 -213 c76 -118 149 -224 163 -236 31 -30
68 -29 98 2 l25 24 0 349 c0 338 -1 350 -21 376 -23 30 -72 35 -105 12 -17
-13 -19 -31 -24 -233 l-5 -218 -149 225 c-81 124 -153 228 -160 232 -23 16
-75 8 -96 -14z"/>
<path d="M4282 4437 c-48 -15 -117 -80 -143 -135 -21 -42 -24 -65 -27 -213 -3
-103 0 -186 8 -222 16 -78 62 -143 130 -181 47 -27 65 -31 125 -31 79 1 130
22 185 77 53 53 73 110 74 210 1 78 -1 90 -22 110 -20 20 -32 23 -108 23 -81
0 -87 -1 -110 -28 -29 -34 -30 -56 -3 -91 15 -19 30 -26 54 -26 43 0 49 -11
32 -52 -22 -51 -53 -73 -102 -73 -49 0 -80 22 -101 72 -17 39 -19 289 -4 345
14 50 52 78 105 78 47 0 90 -26 101 -63 20 -67 95 -90 133 -41 26 34 26 57 0
111 -26 54 -96 116 -147 131 -47 14 -135 14 -180 -1z"/>
</g>
</svg>
