<?xml version="1.0" standalone="no"?>
<!DOCTYPE svg PUBLIC "-//W3C//DTD SVG 20010904//EN"
 "http://www.w3.org/TR/2001/REC-SVG-20010904/DTD/svg10.dtd">
<svg version="1.0" xmlns="http://www.w3.org/2000/svg"
 width="512.000000pt" height="512.000000pt" viewBox="0 0 512.000000 512.000000"
 preserveAspectRatio="xMidYMid meet">

<g transform="translate(0.000000,512.000000) scale(0.100000,-0.100000)"
fill="#000000" stroke="none">
<path d="M610 4998 c-75 -29 -150 -105 -180 -183 l-22 -60 -6 -1852 -5 -1853
-154 0 c-244 0 -243 1 -243 -294 0 -113 5 -229 11 -258 36 -173 176 -325 347
-378 63 -20 96 -20 1726 -20 1816 0 1708 -3 1834 58 86 41 185 140 227 226 48
98 55 147 55 391 l0 212 83 12 c450 68 799 444 834 898 9 121 -22 174 -103
176 -77 2 -108 -43 -117 -169 -18 -247 -180 -492 -402 -606 -107 -55 -179 -77
-283 -87 -384 -38 -727 198 -828 570 -24 88 -25 280 -1 369 71 268 285 481
558 556 98 27 290 25 393 -4 84 -24 210 -86 261 -127 l30 -25 -40 0 c-103 0
-160 -42 -160 -117 0 -38 5 -49 33 -74 l32 -29 206 0 206 0 32 32 33 33 6 185
c8 214 2 251 -46 280 -74 45 -156 4 -166 -83 l-6 -46 -60 41 c-122 83 -291
148 -431 166 l-59 7 -5 915 -5 915 -26 55 c-31 66 -93 130 -157 161 l-47 24
-1650 2 -1650 2 -55 -21z m3333 -222 c14 -13 29 -35 32 -48 3 -12 4 -421 3
-907 l-3 -883 -91 -23 c-279 -71 -515 -264 -645 -527 l-33 -68 -569 0 -569 0
-29 -29 c-24 -24 -29 -38 -29 -76 0 -38 5 -52 29 -76 l29 -29 539 0 538 0 1
-142 c1 -120 5 -159 27 -242 94 -351 372 -627 719 -710 l88 -21 0 -216 c0
-246 -8 -290 -66 -357 -54 -64 -113 -94 -194 -100 -85 -6 -141 18 -199 84 -79
90 -84 111 -90 361 l-6 223 -28 27 -27 28 -1375 3 -1375 2 1 1778 c0 977 4
1810 8 1851 6 63 11 77 35 97 l27 24 1613 0 1613 0 26 -24z m-727 -4089 c1
-153 15 -233 58 -320 l23 -47 -1431 0 -1431 0 -50 24 c-62 28 -128 101 -149
163 -12 34 -16 85 -16 185 l0 138 1498 0 1497 0 1 -143z"/>
<path d="M1633 4417 c-12 -7 -95 -82 -185 -167 -90 -85 -174 -164 -186 -174
l-22 -19 -89 86 c-86 84 -90 87 -135 87 -39 0 -53 -5 -77 -29 -24 -24 -29 -38
-29 -78 l0 -48 137 -136 c153 -151 177 -165 238 -132 19 10 138 116 264 236
191 182 232 225 237 253 16 89 -77 163 -153 121z"/>
<path d="M2048 4191 c-28 -25 -33 -36 -33 -76 0 -40 5 -51 33 -76 l32 -29 705
0 705 0 32 29 c28 25 33 36 33 76 0 40 -5 51 -33 76 l-32 29 -705 0 -705 0
-32 -29z"/>
<path d="M1636 3415 c-16 -9 -109 -92 -207 -185 -97 -94 -181 -170 -186 -170
-5 0 -40 32 -78 71 -100 101 -140 117 -205 84 -38 -19 -50 -43 -50 -96 0 -41
5 -47 128 -171 162 -165 191 -181 257 -139 17 10 132 116 257 235 193 184 228
222 234 252 9 51 -16 101 -61 120 -43 18 -53 18 -89 -1z"/>
<path d="M2048 3241 c-28 -25 -33 -36 -33 -76 0 -40 5 -51 33 -76 l32 -29 705
0 705 0 32 29 c28 25 33 36 33 76 0 40 -5 51 -33 76 l-32 29 -705 0 -705 0
-32 -29z"/>
<path d="M1636 2465 c-16 -9 -109 -92 -207 -185 -97 -94 -181 -170 -186 -170
-5 0 -40 32 -78 71 -100 101 -140 117 -205 84 -38 -19 -50 -43 -50 -96 0 -41
5 -47 128 -171 162 -165 191 -181 257 -139 17 10 132 116 257 235 193 184 228
222 234 252 9 51 -16 101 -61 120 -43 18 -53 18 -89 -1z"/>
<path d="M4083 2464 c-59 -29 -64 -57 -61 -314 l3 -231 167 -166 167 -166 46
5 c79 9 124 78 96 146 -7 16 -68 84 -136 152 l-125 125 0 188 c0 212 -7 238
-65 263 -43 18 -52 17 -92 -2z"/>
</g>
</svg>
