<?xml version="1.0" encoding="UTF-8"?>
<!DOCTYPE svg PUBLIC "-//W3C//DTD SVG 1.1//EN" "http://www.w3.org/Graphics/SVG/1.1/DTD/svg11.dtd">
<svg xmlns="http://www.w3.org/2000/svg" version="1.1" width="128px" height="128px" style="shape-rendering:geometricPrecision; text-rendering:geometricPrecision; image-rendering:optimizeQuality; fill-rule:evenodd; clip-rule:evenodd" xmlns:xlink="http://www.w3.org/1999/xlink">
<g><path style="opacity:0.861" fill="#fefffe" d="M 127.5,75.5 C 127.5,78.8333 127.5,82.1667 127.5,85.5C 123.393,95.9293 115.727,101.929 104.5,103.5C 104.666,108.179 104.499,112.845 104,117.5C 102.108,121.058 99.2749,123.558 95.5,125C 66.5,125.667 37.5,125.667 8.5,125C 4.40474,123.732 1.40474,121.232 -0.5,117.5C -0.5,112.167 -0.5,106.833 -0.5,101.5C 2.72797,100.586 6.06131,100.253 9.5,100.5C 9.33335,69.1649 9.50002,37.8316 10,6.5C 10.8333,4.33333 12.3333,2.83333 14.5,2C 43.5862,1.01672 72.5862,1.35005 101.5,3C 102.333,3.83333 103.167,4.66667 104,5.5C 104.5,21.4965 104.667,37.4965 104.5,53.5C 109.161,53.7489 113.494,55.0822 117.5,57.5C 119.193,55.7214 121.193,55.2214 123.5,56C 124.629,60.0785 124.796,64.2452 124,68.5C 119.587,69.6324 115.087,69.7991 110.5,69C 108.86,66.2242 109.527,64.2242 112.5,63C 100.356,57.1683 91.1896,60.335 85,72.5C 82.4932,83.9906 86.6599,91.8239 97.5,96C 112.199,97.7315 120.366,91.2315 122,76.5C 123.699,75.5939 125.533,75.2606 127.5,75.5 Z M 17.5,7.5 C 43.8354,7.33336 70.1688,7.50003 96.5,8C 97,8.5 97.5,9 98,9.5C 98.8328,24.178 98.6662,38.8447 97.5,53.5C 89.2545,55.5819 83.2545,60.4153 79.5,68C 70.1667,68.3333 60.8333,68.6667 51.5,69C 49.3017,70.67 48.9683,72.67 50.5,75C 59.4938,75.4998 68.4938,75.6664 77.5,75.5C 77.1121,90.4417 84.1121,99.4417 98.5,102.5C 98.6655,106.514 98.4988,110.514 98,114.5C 93.6691,121.263 89.6691,120.929 86,113.5C 85.8002,109.247 85.3002,105.08 84.5,101C 61.5024,100.5 38.5024,100.333 15.5,100.5C 15.3334,70.1648 15.5,39.8315 16,9.5C 16.7172,8.9558 17.2172,8.28913 17.5,7.5 Z M 5.5,107.5 C 30.1667,107.5 54.8333,107.5 79.5,107.5C 79.3946,111.548 79.7279,115.548 80.5,119.5C 57.4976,119.667 34.4976,119.5 11.5,119C 6.2601,117.026 4.2601,113.192 5.5,107.5 Z"/></g>
<g><path style="opacity:0.782" fill="#fefffe" d="M 39.5,16.5 C 43.6772,15.8416 45.1772,17.5082 44,21.5C 39.9461,26.057 35.4461,30.057 30.5,33.5C 27.2302,31.7333 24.3968,29.4 22,26.5C 21.0663,21.9167 22.8996,20.4167 27.5,22C 28.354,23.0217 29.354,23.8551 30.5,24.5C 34.137,22.5204 37.137,19.8537 39.5,16.5 Z"/></g>
<g><path style="opacity:0.885" fill="#fefffe" d="M 50.5,21.5 C 62.8378,21.3335 75.1712,21.5001 87.5,22C 88.4061,23.6995 88.7394,25.5328 88.5,27.5C 75.8289,27.6666 63.1623,27.4999 50.5,27C 49.2475,25.1722 49.2475,23.3388 50.5,21.5 Z"/></g>
<g><path style="opacity:0.785" fill="#fefffe" d="M 39.5,41.5 C 43.6772,40.8416 45.1772,42.5082 44,46.5C 39.9461,51.057 35.4461,55.057 30.5,58.5C 27.2302,56.7333 24.3968,54.4 22,51.5C 21.0663,46.9167 22.8996,45.4167 27.5,47C 28.354,48.0217 29.354,48.8551 30.5,49.5C 34.1405,47.5246 37.1405,44.858 39.5,41.5 Z"/></g>
<g><path style="opacity:0.885" fill="#fefffe" d="M 50.5,45.5 C 63.1667,45.5 75.8333,45.5 88.5,45.5C 88.7394,47.4672 88.4061,49.3005 87.5,51C 75.1667,51.6667 62.8333,51.6667 50.5,51C 49.2475,49.1722 49.2475,47.3388 50.5,45.5 Z"/></g>
<g><path style="opacity:0.773" fill="#fefffe" d="M 39.5,65.5 C 43.6772,64.8416 45.1772,66.5082 44,70.5C 40.5,74 37,77.5 33.5,81C 27.4679,81.6687 23.4679,79.002 21.5,73C 22.0762,71.2856 23.2429,70.1189 25,69.5C 26.9734,70.6399 28.8067,71.9733 30.5,73.5C 33.5454,70.7823 36.5454,68.1156 39.5,65.5 Z"/></g>
<g><path style="opacity:0.757" fill="#fefffe" d="M 100.5,65.5 C 102.167,65.5 103.833,65.5 105.5,65.5C 104.917,72.3638 107.083,78.0305 112,82.5C 112.667,84.1667 112.667,85.8333 112,87.5C 111.275,88.0585 110.442,88.3918 109.5,88.5C 99.6686,83.6806 96.6686,76.0139 100.5,65.5 Z"/></g>
</svg>
