<?xml version="1.0" encoding="UTF-8"?>
<svg version="1.1" xmlns="http://www.w3.org/2000/svg" width="64" height="64">
<path d="M0 0 C0.82773422 -0.00960754 1.65546844 -0.01921509 2.50828552 -0.02911377 C3.84428551 -0.03548859 3.84428551 -0.03548859 5.20727539 -0.04199219 C6.12577774 -0.04769226 7.04428009 -0.05339233 7.99061584 -0.05926514 C9.93318532 -0.06870955 11.87577077 -0.0752469 13.81835938 -0.07910156 C16.79007836 -0.08881862 19.761109 -0.11985179 22.73266602 -0.15136719 C24.6200317 -0.15789631 26.50740233 -0.16314713 28.39477539 -0.16699219 C29.28341782 -0.17933899 30.17206024 -0.19168579 31.08763123 -0.20440674 C37.2151623 -0.18227456 37.2151623 -0.18227456 40.43505859 1.51293945 C42.53321904 3.92723657 42.26507938 5.71111827 42.11743164 8.84863281 C42.08133789 9.8425 42.04524414 10.83636719 42.00805664 11.86035156 C41.96165039 12.61960937 41.91524414 13.37886719 41.86743164 14.16113281 C44.83743164 14.16113281 47.80743164 14.16113281 50.86743164 14.16113281 C51.22913377 21.39517537 51.22913377 21.39517537 49.80493164 24.41113281 C46.88708212 27.04660979 44.52610545 26.55227681 40.67993164 26.41113281 C38.77147461 26.35699219 38.77147461 26.35699219 36.82446289 26.30175781 C35.84864258 26.25535156 34.87282227 26.20894531 33.86743164 26.16113281 C33.86743164 27.48113281 33.86743164 28.80113281 33.86743164 30.16113281 C35.66180664 30.25394531 35.66180664 30.25394531 37.49243164 30.34863281 C42.17623085 30.95379625 44.60827258 32.67459057 47.86743164 36.16113281 C50.72515367 40.95473106 51.29584325 44.62508322 50.44165039 50.01660156 C49.26958278 54.39391528 47.07417022 57.21531068 43.55493164 59.97363281 C39.0204314 61.9772492 35.41204835 62.611183 30.60961914 61.21191406 C16.94732975 57.37563447 0.93826823 59.03988074 -13.13256836 59.16113281 C-12.80256836 58.17113281 -12.47256836 57.18113281 -12.13256836 56.16113281 C-11.14256836 55.66613281 -11.14256836 55.66613281 -10.13256836 55.16113281 C-10.12448151 54.54361145 -10.11639465 53.92609009 -10.10806274 53.28985596 C-10.02204249 46.86587843 -9.92253979 40.44221038 -9.81518555 34.01855469 C-9.77688931 31.62082107 -9.7420376 29.22302988 -9.71069336 26.82519531 C-9.66505731 23.37967339 -9.60705966 19.9345481 -9.54663086 16.48925781 C-9.53507965 15.41621399 -9.52352844 14.34317017 -9.5116272 13.23760986 C-9.49175751 12.23687439 -9.47188782 11.23613892 -9.45141602 10.20507812 C-9.43809235 9.32571594 -9.42476868 8.44635376 -9.41104126 7.54034424 C-9.10768904 4.94856934 -8.58104277 3.32875229 -7.13256836 1.16113281 C-4.41824097 0.25635702 -2.79341491 0.02622144 0 0 Z M-4.83337402 4.37426758 C-6.55119396 6.73689543 -6.49511237 8.18447495 -6.47314453 11.09155273 C-6.47291794 12.09236374 -6.47269135 13.09317474 -6.47245789 14.12431335 C-6.45697403 15.20251846 -6.44149017 16.28072357 -6.42553711 17.39160156 C-6.42129227 18.49715897 -6.41704742 19.60271637 -6.41267395 20.74177551 C-6.39586273 24.27764093 -6.35820521 27.81293926 -6.32006836 31.34863281 C-6.30502472 33.74380688 -6.29133576 36.13898987 -6.27905273 38.53417969 C-6.24595121 44.41002467 -6.19572729 50.28553823 -6.13256836 56.16113281 C-1.0495315 56.27434137 -1.0495315 56.27434137 3.86743164 55.16113281 C5.20076497 55.49446615 6.53409831 55.82779948 7.86743164 56.16113281 C10.28322224 56.22945268 12.70077877 56.24600923 15.11743164 56.22363281 C16.38071289 56.21460938 17.64399414 56.20558594 18.94555664 56.19628906 C20.39188477 56.17888672 20.39188477 56.17888672 21.86743164 56.16113281 C21.54387695 55.25363281 21.22032227 54.34613281 20.88696289 53.41113281 C19.2472745 48.18423343 19.16924084 44.0719708 21.05493164 38.91113281 C23.68181197 34.92552127 26.33684756 32.6713275 30.86743164 31.16113281 C31.19743164 21.92113281 31.52743164 12.68113281 31.86743164 3.16113281 C26.93730227 3.09226913 22.00884038 3.03253633 17.07861328 2.99633789 C15.40147244 2.98124898 13.72437107 2.96077534 12.04736328 2.93481445 C9.63702661 2.8984347 7.22721145 2.88140795 4.81665039 2.86816406 C3.69150276 2.84493828 3.69150276 2.84493828 2.54362488 2.82124329 C-1.37885294 2.75574479 -1.37885294 2.75574479 -4.83337402 4.37426758 Z M35.86743164 3.16113281 C33.70087194 4.91623046 33.70087194 4.91623046 33.64038086 7.04052734 C33.65085449 7.78415527 33.66132812 8.5277832 33.67211914 9.29394531 C33.67856445 10.09960938 33.68500977 10.90527344 33.69165039 11.73535156 C33.7084082 12.57710937 33.72516602 13.41886719 33.74243164 14.28613281 C33.75145508 15.135625 33.76047852 15.98511719 33.76977539 16.86035156 C33.79337517 18.96073165 33.82924681 21.06096725 33.86743164 23.16113281 C35.84743164 23.16113281 37.82743164 23.16113281 39.86743164 23.16113281 C39.53743164 16.89113281 39.20743164 10.62113281 38.86743164 4.16113281 C37.87743164 3.83113281 36.88743164 3.50113281 35.86743164 3.16113281 Z M41.86743164 17.16113281 C42.19743164 18.81113281 42.52743164 20.46113281 42.86743164 22.16113281 C44.84743164 22.65613281 44.84743164 22.65613281 46.86743164 23.16113281 C47.19743164 21.18113281 47.52743164 19.20113281 47.86743164 17.16113281 C45.88743164 17.16113281 43.90743164 17.16113281 41.86743164 17.16113281 Z M24.86743164 37.16113281 C22.1641454 41.17246078 21.16632025 44.35351182 21.86743164 49.16113281 C24.62421849 54.18242315 27.17307043 57.3228871 32.67993164 59.03613281 C36.85538733 59.19987617 39.22878146 58.18260514 42.86743164 56.16113281 C45.77377128 53.40775842 46.74951039 51.59351072 47.80493164 47.72363281 C47.89422167 42.63410103 46.09773549 39.91194983 43.24243164 35.84863281 C36.94295163 31.37268649 30.63898838 32.65931856 24.86743164 37.16113281 Z " fill="#FFFFFF" transform="translate(13.132568359375,0.8388671875)"/>
<path d="M0 0 C8.58 0 17.16 0 26 0 C26 0.99 26 1.98 26 3 C17.09 3 8.18 3 -1 3 C-0.67 2.01 -0.34 1.02 0 0 Z " fill="#FFFFFF" transform="translate(13,26)"/>
<path d="M0 0 C8.91 0 17.82 0 27 0 C27 0.99 27 1.98 27 3 C18.42 3 9.84 3 1 3 C0.67 2.01 0.34 1.02 0 0 Z " fill="#FFFFFF" transform="translate(12,20)"/>
<path d="M0 0 C8.58 0 17.16 0 26 0 C26 0.99 26 1.98 26 3 C17.09 3 8.18 3 -1 3 C-0.67 2.01 -0.34 1.02 0 0 Z " fill="#FFFFFF" transform="translate(13,13)"/>
<path d="M0 0 C8.25 0 16.5 0 25 0 C24.67 0.99 24.34 1.98 24 3 C16.41 3 8.82 3 1 3 C0.67 2.01 0.34 1.02 0 0 Z " fill="#FFFFFF" transform="translate(12,33)"/>
<path d="M0 0 C6.6 0 13.2 0 20 0 C20 0.99 20 1.98 20 3 C13.4 3 6.8 3 0 3 C0 2.01 0 1.02 0 0 Z " fill="#FFFFFF" transform="translate(12,39)"/>
<path d="M0 0 C0.66 0 1.32 0 2 0 C2 4.29 2 8.58 2 13 C-0.97 13 -3.94 13 -7 13 C-7 12.01 -7 11.02 -7 10 C-5.02 10 -3.04 10 -1 10 C-1.01160156 9.36191406 -1.02320313 8.72382812 -1.03515625 8.06640625 C-1.04417969 7.24011719 -1.05320312 6.41382813 -1.0625 5.5625 C-1.07410156 4.73878906 -1.08570313 3.91507813 -1.09765625 3.06640625 C-1 1 -1 1 0 0 Z " fill="#FFFFFF" transform="translate(47,35)"/>
<path d="M0 0 C5.61 0 11.22 0 17 0 C17.33 0.99 17.66 1.98 18 3 C11.73 3 5.46 3 -1 3 C-0.67 2.01 -0.34 1.02 0 0 Z " fill="#FFFFFF" transform="translate(13,45)"/>
</svg>
