<?xml version="1.0" standalone="no"?>
<!DOCTYPE svg PUBLIC "-//W3C//DTD SVG 20010904//EN"
 "http://www.w3.org/TR/2001/REC-SVG-20010904/DTD/svg10.dtd">
<svg version="1.0" xmlns="http://www.w3.org/2000/svg"
 width="495.000000pt" height="134.000000pt" viewBox="0 0 495.000000 134.000000"
 preserveAspectRatio="xMidYMid meet">

<g transform="translate(0.000000,134.000000) scale(0.100000,-0.100000)"
fill="#000000" stroke="none">
<path d="M1391 1208 c-5 -13 -12 -32 -15 -42 -6 -17 -14 -18 -74 -13 -37 4
-120 9 -184 13 l-118 7 -6 -31 c-7 -36 -16 -37 -222 -48 -145 -7 -157 -13
-150 -71 3 -24 -2 -27 -157 -75 -88 -28 -166 -56 -173 -62 -10 -10 6 -89 81
-405 52 -216 98 -396 103 -401 12 -12 472 134 487 154 8 10 37 17 92 21 114 9
125 12 125 36 0 19 4 20 48 15 26 -3 87 -8 135 -12 75 -5 90 -4 100 10 11 15
21 13 108 -16 53 -17 103 -29 111 -26 17 7 214 777 205 800 -4 11 -454 168
-480 168 -4 0 -11 -10 -16 -22z m244 -78 c116 -38 215 -72 221 -74 8 -3 -18
-126 -83 -382 -51 -208 -96 -381 -99 -385 -6 -10 -454 140 -454 152 0 10 177
724 185 747 2 6 8 12 12 12 5 0 103 -31 218 -70z m-432 8 c151 -11 158 -12
155 -32 -3 -19 -9 -21 -68 -18 -36 2 -78 6 -95 9 -16 3 -27 2 -23 -2 4 -4 44
-11 88 -15 44 -4 83 -9 86 -12 8 -9 -34 -162 -46 -166 -6 -2 -23 -15 -39 -28
l-28 -23 -11 23 c-23 51 -101 37 -123 -22 -15 -38 -3 -84 35 -139 18 -26 46
-69 64 -94 l31 -46 -14 -54 c-25 -91 -21 -105 28 -123 l42 -16 -85 5 c-47 3
-106 8 -132 11 l-47 6 -4 56 -3 57 -2 -61 -2 -62 53 -6 c28 -4 99 -8 155 -11
104 -4 244 -38 225 -55 -8 -8 -462 25 -471 34 -2 3 5 169 17 368 12 200 21
378 21 396 0 38 -17 36 193 20z m-213 -78 c0 -17 -7 -20 -47 -21 -27 0 -70 -5
-98 -9 -40 -7 -30 -8 46 -5 l96 4 -4 -72 c-2 -40 -6 -97 -9 -127 -6 -54 -6
-54 -20 -27 -41 78 -149 11 -117 -73 9 -23 7 -26 -11 -28 -28 -2 -56 -38 -56
-71 0 -61 60 -93 102 -54 17 15 18 15 18 -1 0 -10 -5 -26 -10 -37 -10 -17 -7
-19 31 -19 33 0 39 3 31 13 -6 7 -16 25 -21 40 l-11 28 25 -18 c24 -18 24 -19
18 -133 -3 -63 -7 -116 -8 -117 -1 -2 -49 -6 -107 -9 l-106 -7 -6 49 c-3 27
-8 131 -12 232 -6 181 -21 337 -22 247 -2 -63 25 -535 30 -540 2 -3 67 0 144
6 172 14 314 6 292 -16 -9 -9 -461 -36 -468 -28 -9 10 -46 780 -38 788 5 6
190 20 291 24 41 1 47 -2 47 -19z m-360 -109 c0 -15 -17 -25 -81 -46 -102 -34
-99 -42 4 -10 l77 23 0 -36 c0 -20 3 -75 6 -122 l7 -85 -31 28 -30 29 -7 -33
c-4 -18 -20 -63 -35 -101 l-27 -67 36 -26 c21 -14 53 -41 71 -60 32 -33 35
-41 38 -113 4 -83 13 -102 46 -103 11 0 -8 -11 -44 -24 -92 -33 -60 -31 41 3
79 27 274 54 239 33 -18 -11 -429 -141 -444 -141 -9 0 -71 242 -182 717 l-12
53 151 49 c84 27 158 50 165 50 6 1 12 -8 12 -18z m340 -226 c0 -8 -4 -15 -10
-15 -5 0 -7 7 -4 15 4 8 8 15 10 15 2 0 4 -7 4 -15z"/>
<path d="M1432 1106 c-32 -50 -35 -69 -8 -47 17 15 36 7 36 -15 0 -8 5 -14 10
-14 11 0 11 48 1 95 l-7 30 -32 -49z m25 -18 c-3 -8 -6 -5 -6 6 -1 11 2 17 5
13 3 -3 4 -12 1 -19z"/>
<path d="M1550 1106 c0 -2 57 -23 128 -47 70 -23 128 -42 129 -43 1 -1 -29
-124 -66 -274 -38 -149 -66 -272 -62 -272 7 0 146 549 140 554 -6 5 -253 86
-262 86 -4 0 -7 -2 -7 -4z"/>
<path d="M1391 984 c-5 -22 -35 -140 -66 -264 -31 -124 -58 -232 -61 -242 -4
-13 21 -25 131 -61 74 -25 135 -42 135 -38 0 4 -55 25 -121 46 -67 22 -123 45
-126 51 -2 6 26 129 62 274 36 144 64 265 61 267 -3 3 -9 -12 -15 -33z"/>
<path d="M1560 905 c-7 -8 -37 -29 -67 -46 -84 -48 -116 -122 -77 -177 17 -24
62 -30 82 -10 20 20 14 -7 -8 -35 -26 -33 -26 -33 11 -46 44 -15 51 -14 39 8
-5 11 -10 32 -10 48 1 26 1 26 12 8 27 -50 66 -58 103 -20 37 36 32 81 -17
191 -24 52 -46 94 -49 94 -4 0 -12 -7 -19 -15z"/>
<path d="M1607 404 c-15 -26 -25 -49 -22 -52 3 -4 10 0 15 7 10 17 40 7 40
-14 0 -8 5 -15 10 -15 6 0 10 10 10 23 0 36 -12 97 -19 97 -3 0 -19 -21 -34
-46z m33 -10 c0 -8 -5 -12 -10 -9 -6 4 -8 11 -5 16 9 14 15 11 15 -7z"/>
<path d="M1061 1067 c-24 -54 -27 -81 -7 -54 7 9 18 17 24 17 6 0 16 -8 21
-17 10 -17 10 -16 10 2 0 11 -6 38 -13 60 l-13 40 -22 -48z m29 -18 c0 -5 -4
-9 -10 -9 -5 0 -10 7 -10 16 0 8 5 12 10 9 6 -3 10 -10 10 -16z"/>
<path d="M1043 925 c0 -27 2 -38 4 -22 2 15 2 37 0 50 -2 12 -4 0 -4 -28z"/>
<path d="M1033 780 c0 -47 2 -66 4 -42 2 23 2 61 0 85 -2 23 -4 4 -4 -43z"/>
<path d="M1023 595 c0 -44 2 -61 4 -37 2 23 2 59 0 80 -2 20 -4 1 -4 -43z"/>
<path d="M705 1018 c-7 -23 -25 -93 -25 -100 0 -5 5 -8 10 -8 6 0 10 7 10 15
0 18 36 20 43 3 2 -7 7 -10 11 -7 7 7 -22 97 -35 105 -5 3 -11 -1 -14 -8z m12
-50 c-3 -8 -6 -5 -6 6 -1 11 2 17 5 13 3 -3 4 -12 1 -19z"/>
<path d="M368 795 c-1 -30 0 -55 5 -55 4 0 7 7 7 15 0 21 30 31 40 14 5 -7 11
-11 14 -8 7 6 -43 89 -54 89 -4 0 -10 -25 -12 -55z m32 4 c0 -5 -4 -9 -10 -9
-5 0 -10 7 -10 16 0 8 5 12 10 9 6 -3 10 -10 10 -16z"/>
<path d="M381 700 c0 -8 4 -24 9 -35 5 -13 9 -14 9 -5 0 8 -4 24 -9 35 -5 13
-9 14 -9 5z"/>
<path d="M401 630 c0 -8 6 -37 13 -65 8 -27 15 -43 15 -35 0 8 -6 38 -13 65
-8 28 -15 43 -15 35z"/>
<path d="M431 500 c0 -8 8 -46 18 -85 11 -38 19 -63 20 -55 0 8 -8 47 -18 85
-11 39 -19 63 -20 55z"/>
<path d="M471 324 c0 -11 3 -14 6 -6 3 7 2 16 -1 19 -3 4 -6 -2 -5 -13z"/>
<path d="M481 284 c0 -11 3 -14 6 -6 3 7 2 16 -1 19 -3 4 -6 -2 -5 -13z"/>
<path d="M491 252 c-1 -21 21 -102 28 -101 16 2 75 28 64 28 -6 1 -23 -3 -37
-9 -24 -9 -26 -7 -36 33 -14 55 -18 65 -19 49z"/>
<path d="M2041 1058 c-5 -13 -44 -102 -86 -198 -102 -231 -99 -222 -79 -218 9
2 26 28 38 58 l22 55 101 3 100 3 26 -61 c24 -54 29 -60 57 -60 16 0 30 3 30
8 0 4 -39 95 -86 202 -47 107 -88 203 -91 213 -7 24 -22 21 -32 -5z m46 -171
l41 -102 -85 -3 c-47 -2 -87 -1 -89 1 -5 5 78 207 85 207 3 0 25 -46 48 -103z"/>
<path d="M2412 1050 c-81 -41 -114 -88 -120 -171 -6 -82 4 -124 41 -166 58
-66 152 -90 280 -69 32 5 47 12 47 23 0 10 -5 13 -17 8 -43 -18 -100 -25 -142
-19 -60 9 -124 69 -141 134 -26 96 12 206 85 247 48 27 74 28 143 4 46 -16 54
-16 59 -4 10 26 -15 36 -94 40 -72 4 -83 2 -141 -27z"/>
<path d="M3767 1073 c-7 -12 -187 -424 -187 -429 0 -2 6 -4 13 -4 8 0 25 27
40 60 l26 60 98 0 98 0 25 -60 c23 -56 27 -60 58 -60 17 0 32 3 32 6 0 10
-181 419 -189 427 -5 5 -11 5 -14 0z m37 -186 c20 -49 36 -93 36 -98 0 -5 -39
-9 -86 -9 -99 0 -95 -13 -36 128 19 46 38 80 42 75 4 -4 23 -48 44 -96z"/>
<path d="M4704 1070 c-34 -14 -64 -59 -64 -98 0 -28 8 -43 43 -76 24 -22 64
-53 89 -68 62 -35 84 -69 72 -111 -7 -23 -20 -37 -48 -51 -39 -19 -48 -19
-146 9 -24 7 -24 7 -8 -10 22 -24 110 -36 170 -23 63 13 98 53 98 112 0 49
-26 79 -120 138 -30 19 -64 45 -74 57 -24 26 -25 76 -3 99 16 15 22 15 75 1
31 -9 65 -20 75 -24 16 -6 18 -4 15 16 -2 15 -12 26 -28 30 -35 10 -121 9
-146 -1z"/>
<path d="M2740 855 l0 -215 130 0 c124 0 130 1 130 21 0 19 -4 20 -87 13 -49
-3 -92 -7 -98 -8 -6 0 -10 36 -10 94 l0 95 73 3 c95 4 93 22 -3 22 l-76 0 3
83 3 82 65 0 c36 0 80 -3 98 -7 28 -7 32 -5 32 12 0 19 -7 20 -130 20 l-130 0
0 -215z"/>
<path d="M3227 1051 c4 -16 10 -17 41 -10 21 5 49 9 65 9 l27 0 0 -205 0 -205
30 0 30 0 2 203 3 202 35 0 c19 -1 50 -4 68 -9 28 -7 32 -5 32 13 0 20 -5 21
-169 21 -160 0 -169 -1 -164 -19z"/>
<path d="M4026 1058 c7 -13 49 -73 111 -159 l33 -47 -81 -103 c-44 -57 -76
-105 -70 -107 17 -6 30 8 96 102 33 47 62 85 65 86 3 0 32 -43 65 -95 58 -91
61 -94 98 -94 20 -1 37 1 37 5 0 3 -36 54 -80 113 -44 60 -80 112 -80 116 0 5
83 112 138 178 14 15 13 17 -4 17 -12 0 -42 -31 -83 -85 -35 -47 -67 -83 -71
-80 -4 2 -29 41 -56 85 -47 77 -50 80 -87 80 -28 0 -36 -3 -31 -12z"/>
<path d="M4470 855 l0 -215 30 0 30 0 0 215 0 215 -30 0 -30 0 0 -215z"/>
<path d="M2660 375 l0 -125 55 0 c127 0 192 75 151 173 -19 47 -78 76 -153 77
l-53 0 0 -125z m146 81 c27 -27 34 -42 34 -75 0 -76 -40 -121 -110 -121 l-30
0 0 108 c0 60 3 112 7 115 18 19 67 5 99 -27z"/>
<path d="M2984 490 c-54 -21 -85 -102 -64 -164 16 -49 53 -76 105 -76 117 0
177 140 95 222 -23 22 -37 28 -72 27 -24 0 -53 -4 -64 -9z m111 -32 c24 -29
27 -38 23 -90 -6 -87 -56 -127 -123 -102 -24 10 -45 58 -45 104 0 106 86 158
145 88z"/>
<path d="M3210 375 c0 -104 2 -125 15 -125 12 0 15 13 15 60 0 51 3 60 18 60
11 0 35 -24 60 -60 29 -41 49 -60 64 -60 23 0 27 -6 -40 73 -34 41 -40 57 -19
57 24 0 49 37 45 66 -4 37 -37 54 -105 54 l-53 0 0 -125z m114 93 c9 -12 16
-29 16 -37 0 -26 -32 -51 -67 -51 -33 0 -33 0 -33 48 0 27 3 52 7 55 15 16 62
6 77 -15z"/>
<path d="M3466 481 c-31 -34 -17 -72 39 -108 62 -41 75 -65 49 -94 -16 -18
-26 -20 -69 -15 -34 4 -45 2 -35 -4 28 -18 108 -12 130 10 39 39 20 89 -49
124 -16 9 -37 26 -45 37 -30 44 21 77 75 49 15 -8 19 -7 19 5 0 24 -92 21
-114 -4z"/>
<path d="M3660 375 l0 -125 75 0 c49 0 75 4 75 11 0 8 -17 10 -55 6 l-55 -6 0
59 0 59 43 4 42 4 -42 1 -43 2 0 51 0 52 55 -7 c35 -4 55 -2 55 4 0 6 -31 10
-75 10 l-75 0 0 -125z"/>
<path d="M3850 490 c0 -5 17 -8 38 -7 l37 2 3 -117 c2 -96 5 -118 17 -118 12
0 15 21 15 121 l0 121 40 -7 c26 -4 40 -3 40 4 0 7 -33 11 -95 11 -55 0 -95
-4 -95 -10z"/>
</g>
</svg>
