<?xml version="1.0" standalone="no"?>
<!DOCTYPE svg PUBLIC "-//W3C//DTD SVG 20010904//EN"
 "http://www.w3.org/TR/2001/REC-SVG-20010904/DTD/svg10.dtd">
<svg version="1.0" xmlns="http://www.w3.org/2000/svg"
 width="272.000000pt" height="44.000000pt" viewBox="0 0 272.000000 44.000000"
 preserveAspectRatio="xMidYMid meet">

<g transform="translate(0.000000,44.000000) scale(0.100000,-0.100000)"
fill="#000000" stroke="none">
<path d="M50 215 l0 -195 190 0 190 0 0 195 0 195 -190 0 -190 0 0 -195z m286
90 c3 -14 12 -29 19 -33 9 -5 11 -23 8 -59 -5 -50 -7 -53 -34 -53 -19 0 -29 5
-29 15 0 12 -13 15 -60 15 -47 0 -60 -3 -60 -15 0 -10 -10 -15 -29 -15 -27 0
-29 3 -34 53 -3 36 -1 54 8 59 7 4 16 19 19 33 6 24 9 25 96 25 87 0 90 -1 96
-25z m-186 -180 c0 -8 -4 -15 -10 -15 -5 0 -10 7 -10 15 0 8 5 15 10 15 6 0
10 -7 10 -15z m27 0 c0 -8 -4 -15 -9 -15 -4 0 -8 7 -8 15 0 8 4 15 8 15 5 0 9
-7 9 -15z m33 0 c0 -8 -4 -15 -10 -15 -5 0 -10 7 -10 15 0 8 5 15 10 15 6 0
10 -7 10 -15z m34 0 c-4 -8 -8 -15 -10 -15 -2 0 -4 7 -4 15 0 8 4 15 10 15 5
0 7 -7 4 -15z m63 0 c0 -10 -10 -15 -29 -15 -27 0 -35 9 -21 23 13 13 50 7 50
-8z m51 -2 c2 -8 -5 -13 -17 -13 -12 0 -21 6 -21 16 0 18 31 15 38 -3z"/>
<path d="M190 275 c0 -11 12 -15 50 -15 38 0 50 4 50 15 0 11 -12 15 -50 15
-38 0 -50 -4 -50 -15z"/>
</g>
</svg>
