<?xml version="1.0" standalone="no"?>
<!DOCTYPE svg PUBLIC "-//W3C//DTD SVG 20010904//EN"
 "http://www.w3.org/TR/2001/REC-SVG-20010904/DTD/svg10.dtd">
<svg version="1.0" xmlns="http://www.w3.org/2000/svg"
 width="512.000000pt" height="512.000000pt" viewBox="0 0 512.000000 512.000000"
 preserveAspectRatio="xMidYMid meet">

<g transform="translate(0.000000,512.000000) scale(0.100000,-0.100000)"
fill="#FFFFFF" stroke="none">
<path d="M2845 4746 c-162 -40 -289 -172 -324 -334 -6 -29 -11 -134 -11 -232
0 -98 5 -203 11 -232 37 -175 181 -310 364 -341 228 -39 456 129 494 364 6 35
11 134 11 219 0 240 -25 324 -126 430 -112 117 -267 164 -419 126z m221 -174
c65 -33 101 -69 131 -130 28 -57 28 -58 28 -262 0 -204 0 -205 -28 -262 -62
-125 -195 -183 -332 -144 -45 14 -69 29 -110 69 -77 77 -85 110 -85 337 0 148
3 197 17 236 23 67 104 147 169 168 64 21 157 15 210 -12z"/>
<path d="M2386 3624 c-189 -46 -350 -217 -385 -408 -15 -81 -15 -1456 0 -1509
5 -21 24 -54 42 -74 47 -53 97 -73 189 -73 l77 0 3 -512 c3 -508 3 -513 25
-554 28 -53 91 -107 142 -122 21 -7 74 -12 117 -12 120 1 198 43 247 135 22
39 22 49 25 553 l3 512 79 0 80 0 0 -507 c0 -570 -2 -552 75 -626 53 -52 117
-70 224 -65 103 5 157 30 208 96 41 54 41 68 3 75 -16 4 -48 15 -70 26 l-40
19 -29 -29 c-27 -26 -36 -29 -96 -29 -57 0 -69 3 -90 25 l-25 24 0 496 c0 323
3 495 10 495 6 0 10 33 10 80 l0 80 -370 0 -370 0 0 355 0 356 -25 24 c-39 40
-96 32 -120 -16 -12 -23 -15 -90 -15 -374 l0 -345 -64 0 c-46 0 -69 5 -81 16
-14 14 -15 87 -13 743 l3 726 28 60 c37 78 104 146 181 182 56 25 74 28 208
33 l148 5 -56 29 c-31 17 -80 51 -109 78 -59 53 -71 56 -169 32z m322 -2565
l-3 -501 -24 -19 c-18 -15 -39 -19 -93 -19 -60 0 -72 3 -93 25 l-25 24 0 496
0 495 120 0 121 0 -3 -501z"/>
<path d="M3370 3615 c-32 -34 -166 -124 -188 -127 -10 -1 53 -4 138 -7 140 -6
161 -9 212 -33 111 -52 196 -162 206 -269 2 -27 6 -49 8 -49 2 0 24 16 50 35
25 19 57 38 71 41 23 6 25 10 19 43 -10 64 -73 176 -131 234 -87 87 -189 137
-307 152 -49 6 -55 5 -78 -20z"/>
<path d="M3946 3065 c-54 -19 -106 -64 -133 -115 -22 -41 -23 -54 -23 -237 l0
-193 -95 0 c-70 0 -108 -5 -147 -20 -63 -23 -128 -85 -157 -150 -20 -44 -21
-63 -21 -750 l0 -705 24 -50 c31 -68 101 -130 167 -149 29 -9 61 -16 71 -16
16 0 18 -9 18 -69 0 -105 34 -169 115 -216 164 -97 355 20 355 218 l0 67 139
0 138 0 6 -74 c8 -114 53 -183 147 -225 83 -38 188 -19 254 45 53 52 69 89 74
177 4 61 8 80 21 84 93 29 150 73 189 147 l27 51 3 694 c3 803 6 768 -82 856
-68 69 -120 85 -268 85 l-108 0 0 188 c0 211 -7 239 -75 305 -62 61 -97 67
-364 67 -174 -1 -246 -4 -275 -15z m529 -170 c25 -24 25 -27 25 -200 l0 -175
-281 0 -281 0 4 176 3 176 28 24 c28 24 30 24 253 24 l225 0 24 -25z m447
-573 l33 -32 0 -690 0 -690 -33 -32 -32 -33 -635 -3 c-698 -3 -678 -4 -710 58
-23 44 -23 1356 0 1400 32 62 8 60 707 57 l638 -2 32 -33z m-962 -1701 c0 -52
-3 -62 -26 -80 -15 -12 -37 -21 -49 -21 -12 0 -34 9 -49 21 -23 18 -26 28 -26
80 l0 59 75 0 75 0 0 -59z m760 4 c0 -85 -47 -124 -113 -94 -32 14 -47 49 -47
104 l0 45 80 0 80 0 0 -55z"/>
<path d="M4193 1936 l-28 -24 0 -312 0 -312 28 -24 c36 -31 71 -31 102 1 l25
24 0 311 0 311 -25 24 c-31 32 -66 32 -102 1z"/>
<path d="M3873 1816 l-28 -24 0 -192 0 -192 28 -24 c34 -29 66 -31 101 -3 l26
20 0 199 0 199 -26 20 c-35 28 -67 26 -101 -3z"/>
<path d="M4524 1828 c-38 -18 -44 -51 -44 -228 0 -180 6 -210 47 -229 37 -17
62 -13 88 14 25 24 25 26 25 215 0 189 0 191 -25 215 -25 26 -56 31 -91 13z"/>
<path d="M987 2984 c-140 -34 -317 -161 -400 -287 -19 -29 -80 -153 -137 -276
-85 -183 -109 -225 -129 -233 -143 -54 -226 -124 -280 -238 l-36 -75 -3 -445
c-2 -314 0 -457 8 -485 25 -87 95 -153 183 -176 l45 -11 4 -87 c5 -100 30
-157 95 -210 64 -53 114 -63 281 -59 143 3 148 4 202 34 92 53 140 146 140
274 l0 50 595 0 595 0 0 80 0 80 -966 0 -966 0 -29 29 -29 29 0 419 c0 481 0
484 80 563 82 83 45 80 867 80 l723 0 0 80 0 80 -650 0 c-357 0 -650 4 -650 8
0 23 177 385 210 428 65 86 151 148 257 183 59 20 84 21 448 21 l385 0 0 80 0
80 -392 -1 c-302 0 -406 -4 -451 -15z m-187 -2276 c0 -62 -25 -118 -60 -135
-16 -8 -70 -13 -149 -13 l-123 0 -34 34 c-32 32 -34 38 -34 100 l0 66 200 0
200 0 0 -52z"/>
<path d="M626 1744 c-65 -21 -146 -101 -169 -168 -71 -208 104 -410 317 -366
185 38 277 251 181 416 -63 107 -205 158 -329 118z m152 -164 c19 -12 40 -37
49 -58 13 -32 14 -42 2 -77 -16 -44 -67 -85 -106 -85 -39 0 -93 30 -108 61
-58 111 58 223 163 159z"/>
<path d="M1226 1699 c-20 -16 -26 -29 -26 -59 0 -30 6 -43 26 -59 26 -20 38
-21 345 -21 176 0 319 2 319 4 0 2 -11 28 -25 58 -14 29 -25 63 -25 76 l0 22
-294 0 c-282 0 -294 -1 -320 -21z"/>
<path d="M1226 1379 c-20 -16 -26 -29 -26 -59 0 -30 6 -43 26 -59 26 -21 37
-21 475 -21 l449 0 0 80 0 80 -449 0 c-438 0 -449 0 -475 -21z"/>
</g>
</svg>
